<svg width="61" height="80" xmlns="http://www.w3.org/2000/svg"><g fill="#000" fill-rule="nonzero"><path d="M1.473 80h57.97a1 1 0 0 0 1-1V5.249a1 1 0 0 0-1-1H54.69V1a1 1 0 1 0-2 0v3.249h-2.25V1a1 1 0 1 0-2 0v3.249h-7.904V1a1 1 0 1 0-2 0v3.249h-2.25V1a1 1 0 1 0-2 0v3.249H26.38V1a1 1 0 1 0-2 0v3.249h-2.25V1a1 1 0 1 0-2 0v3.249h-7.904V1a1 1 0 1 0-2 0v3.249h-2.25V1a1 1 0 1 0-2 0v3.249H1.473a1 1 0 0 0-1 1V79a1 1 0 0 0 1 1zm1-73.751h3.503v3.249a1 1 0 1 0 2 0V6.249h2.25v3.249a1 1 0 1 0 2 0V6.249h7.904v3.249a1 1 0 1 0 2 0V6.249h2.25v3.249a1 1 0 1 0 2 0V6.249h7.905v3.249a1 1 0 1 0 2 0V6.249h2.25v3.249a1 1 0 1 0 2 0V6.249h7.904v3.249a1 1 0 1 0 2 0V6.249h2.25v3.249a1 1 0 1 0 2 0V6.249h3.753V78H2.472V6.249h.001z"/><path d="M53.689 47.196H6.976a1 1 0 1 0 0 2H53.69a1 1 0 1 0-.001-2zM53.689 57.803H6.976a1 1 0 1 0 0 2H53.69a1 1 0 1 0-.001-2zM53.689 68.41H6.976a1 1 0 1 0 0 2H53.69a1 1 0 1 0-.001-2zM30.08 41.357a1.005 1.005 0 0 0 .754 0c.476-.194 11.685-4.847 13.745-13.85 1.236-5.403-1.757-9.313-5.06-10.661-3.297-1.343-6.725-.368-9.062 2.477-2.337-2.844-5.763-3.822-9.062-2.477-3.304 1.347-6.296 5.258-5.06 10.661 2.06 9.002 13.269 13.656 13.745 13.85zm-7.93-22.659a5.847 5.847 0 0 1 2.195-.435c1.802 0 3.769.873 5.259 3.306.363.593 1.342.593 1.705 0 2.136-3.487 5.251-3.769 7.454-2.871 2.546 1.038 4.842 4.098 3.866 8.362-1.631 7.122-10.257 11.407-12.174 12.278-1.917-.87-10.538-5.142-12.171-12.278-.974-4.264 1.321-7.324 3.866-8.362z"/></g></svg>